<?xml version="1.0" standalone="no"?>
<!DOCTYPE svg PUBLIC "-//W3C//DTD SVG 20010904//EN"
 "http://www.w3.org/TR/2001/REC-SVG-20010904/DTD/svg10.dtd">
<svg version="1.0" xmlns="http://www.w3.org/2000/svg"
 width="774.000000pt" height="774.000000pt" viewBox="0 0 774.000000 774.000000"
 preserveAspectRatio="xMidYMid meet">
<metadata>
Created by potrace 1.14, written by Peter Selinger 2001-2017
</metadata>
<g transform="translate(0.000000,774.000000) scale(0.100000,-0.100000)"
fill="#000000" stroke="none">
<path d="M3669 7705 c-3 -2 -40 -6 -84 -10 -44 -3 -91 -8 -105 -10 -14 -2 -45
-7 -70 -10 -123 -18 -163 -25 -180 -31 -8 -3 -32 -8 -54 -11 -21 -3 -104 -23
-185 -44 -80 -22 -155 -42 -167 -44 -12 -3 -41 -12 -65 -21 -24 -8 -52 -17
-62 -19 -34 -7 -244 -87 -362 -137 -125 -53 -343 -163 -430 -216 -27 -17 -83
-50 -122 -73 -40 -23 -73 -46 -73 -51 0 -4 -6 -8 -12 -8 -7 0 -24 -9 -38 -20
-14 -11 -74 -57 -135 -102 -60 -45 -115 -87 -122 -93 -6 -5 -37 -32 -70 -60
-76 -65 -327 -315 -383 -384 -25 -29 -50 -59 -55 -65 -6 -6 -26 -31 -45 -56
-19 -25 -39 -50 -45 -57 -22 -27 -32 -40 -65 -88 -19 -27 -37 -52 -40 -55 -36
-35 -275 -433 -301 -502 -6 -16 -15 -28 -20 -28 -5 0 -9 -6 -9 -13 0 -8 -20
-54 -45 -104 -24 -50 -53 -114 -64 -141 -25 -62 -15 -80 49 -87 25 -3 70 -7
100 -11 30 -3 528 -7 1105 -9 578 -2 1068 -7 1090 -10 87 -12 112 -18 160 -44
28 -14 56 -32 63 -38 7 -7 17 -13 21 -13 15 0 127 -115 160 -163 45 -66 85
-158 106 -242 19 -72 25 -241 13 -325 -26 -182 -156 -354 -339 -447 -30 -15
-56 -28 -59 -29 -3 0 -17 -6 -31 -12 -104 -43 -216 -54 -582 -56 l-269 -1 -19
-24 c-17 -21 -19 -34 -14 -85 15 -144 33 -189 127 -301 9 -11 51 -63 93 -115
43 -52 81 -96 86 -98 5 -2 9 -10 9 -17 0 -7 4 -15 8 -17 4 -1 57 -64 117 -138
59 -74 111 -137 114 -140 4 -3 58 -70 121 -150 63 -80 117 -147 120 -150 3 -3
21 -25 40 -50 19 -25 39 -50 45 -56 5 -7 19 -24 30 -40 11 -15 25 -32 31 -38
9 -10 48 -59 148 -191 17 -22 33 -42 37 -45 3 -3 50 -63 104 -135 109 -143
148 -184 179 -187 12 0 164 -2 339 -3 352 -1 366 1 346 53 -6 14 -13 29 -17
32 -4 3 -43 48 -87 100 -44 52 -82 97 -85 100 -3 3 -60 70 -127 150 -67 80
-135 160 -152 179 -17 19 -31 37 -31 40 0 3 -22 29 -48 58 -26 28 -58 66 -72
84 -14 18 -32 40 -40 48 -9 9 -49 56 -90 106 -41 49 -85 101 -97 115 -11 14
-65 77 -118 140 -53 63 -113 132 -132 154 -43 48 -56 81 -43 107 6 10 14 18
18 17 4 -1 16 2 27 6 11 4 31 12 45 16 14 4 34 12 45 16 11 4 23 7 26 6 14 -2
232 110 299 154 140 92 279 251 359 411 27 54 73 179 87 236 12 49 15 67 29
146 25 145 21 323 -11 494 -9 49 -60 200 -87 257 -16 36 -31 68 -31 72 -2 15
-128 198 -136 198 -6 0 -10 5 -10 11 0 22 -156 163 -245 221 -89 59 -205 118
-231 118 -8 0 -14 5 -14 12 0 6 -3 9 -6 5 -3 -3 -25 1 -47 9 -37 13 -80 24
-152 40 -23 5 -54 9 -140 20 -33 4 -340 8 -682 8 -723 2 -687 -3 -607 87 115
131 345 359 449 444 26 22 55 47 64 56 9 9 57 46 106 83 50 37 98 74 108 82 9
8 21 14 26 14 5 0 11 7 15 15 3 8 10 15 16 15 6 0 26 11 44 25 18 14 36 25 39
25 3 0 25 13 49 29 99 66 410 221 443 221 8 0 15 5 15 12 0 6 3 9 6 5 3 -3 27
4 52 15 51 22 218 79 242 83 8 1 26 7 40 12 24 10 283 72 325 78 11 1 47 6 80
10 33 4 62 9 65 10 29 17 495 26 620 12 94 -11 213 -27 241 -33 13 -2 35 -6
49 -8 164 -25 481 -123 666 -206 136 -61 370 -182 424 -218 14 -9 34 -22 45
-28 41 -22 70 -39 81 -49 7 -5 68 -46 136 -90 67 -43 125 -82 128 -85 15 -16
76 -53 116 -70 43 -19 65 -20 417 -15 427 6 437 7 437 40 0 38 -213 258 -439
454 -95 82 -260 211 -270 211 -5 0 -11 4 -13 8 -9 24 -280 191 -448 278 -305
158 -725 315 -981 368 -13 3 -35 8 -49 11 -49 11 -125 26 -159 31 -18 2 -36 6
-40 8 -3 2 -31 7 -61 10 -30 4 -73 9 -95 12 -22 3 -62 8 -90 11 -70 6 -531 13
-536 8z"/>
<path d="M5570 5741 c0 -3 -174 -7 -388 -9 -400 -3 -882 -9 -917 -11 -31 -2
-45 -15 -51 -47 -9 -42 -11 -3792 -3 -3833 4 -18 13 -39 19 -45 11 -11 453
-20 498 -9 12 3 27 14 33 26 12 21 16 232 23 1053 4 520 4 518 58 529 15 4
345 7 733 7 518 0 709 4 720 12 13 9 17 40 21 156 13 362 11 400 -29 421 -16
9 -202 13 -734 13 l-713 1 -27 28 -28 27 0 503 c1 460 2 505 18 535 10 18 22
30 27 27 4 -3 10 0 12 7 3 9 220 12 951 13 521 0 947 -2 947 -5 0 -3 12 -7 27
-8 35 -3 75 -45 98 -102 40 -102 77 -207 81 -229 3 -14 7 -28 10 -33 8 -13 62
-228 58 -228 -3 0 -1 -8 5 -17 5 -10 11 -36 15 -58 7 -48 14 -91 26 -165 34
-206 40 -531 15 -795 -4 -38 -9 -79 -11 -90 -3 -11 -6 -36 -9 -56 -6 -55 -35
-210 -45 -244 -5 -16 -12 -45 -15 -63 -3 -18 -13 -54 -21 -80 -9 -26 -17 -51
-19 -57 -10 -53 -100 -292 -117 -312 -6 -7 -8 -13 -4 -13 11 0 -157 -321 -181
-348 -7 -7 -13 -20 -13 -28 0 -8 -3 -14 -8 -14 -4 0 -16 -17 -27 -37 -11 -20
-25 -41 -30 -47 -6 -6 -23 -31 -39 -55 -32 -49 -32 -50 -74 -101 -16 -19 -35
-44 -43 -56 -8 -12 -37 -48 -66 -80 -28 -32 -61 -70 -73 -84 -69 -80 -237
-244 -329 -320 -30 -25 -62 -52 -70 -60 -38 -36 -235 -174 -341 -238 -122 -73
-272 -152 -380 -197 -36 -15 -78 -33 -95 -40 -70 -31 -298 -103 -378 -120 -10
-2 -27 -7 -37 -10 -10 -3 -28 -8 -40 -10 -12 -2 -29 -6 -38 -9 -9 -3 -34 -7
-56 -11 -21 -3 -41 -7 -45 -9 -3 -2 -31 -7 -61 -11 -30 -3 -62 -8 -70 -10 -8
-2 -40 -7 -70 -11 -30 -3 -66 -8 -80 -9 -226 -28 -661 -17 -845 22 -11 2 -31
6 -45 8 -53 8 -96 16 -112 21 -9 3 -25 7 -36 9 -12 2 -65 16 -119 30 -54 15
-102 28 -108 29 -5 2 -17 6 -25 9 -8 3 -65 24 -127 46 -61 23 -129 49 -150 58
-21 9 -40 17 -43 18 -14 2 -189 91 -212 107 -16 11 -28 17 -28 14 0 -5 -108
57 -127 74 -7 5 -15 10 -18 10 -4 0 -26 14 -50 30 -24 17 -46 30 -49 30 -16 0
-332 240 -400 304 -94 88 -202 196 -238 238 -24 27 -54 62 -68 76 -14 15 -38
45 -55 67 -16 22 -40 51 -52 65 -13 14 -23 28 -23 33 0 4 -11 20 -25 35 -14
15 -25 32 -25 39 0 6 -3 13 -7 15 -12 5 -79 105 -99 148 -4 8 -19 33 -33 55
-23 38 -141 269 -141 278 0 3 -9 25 -20 51 -12 25 -21 49 -21 53 -1 5 -5 16
-11 27 -11 21 -98 263 -103 288 -2 9 -13 51 -25 93 -12 42 -23 84 -25 93 -1 9
-8 35 -14 57 -6 22 -13 57 -17 79 -3 21 -8 48 -10 60 -32 141 -45 300 -46 526
-1 148 7 310 16 365 2 11 8 45 12 75 8 58 10 68 13 73 1 1 4 16 6 32 2 17 6
41 9 55 30 137 30 148 -9 167 -32 15 -569 9 -599 -7 -24 -12 -37 -40 -42 -90
-1 -14 -5 -56 -9 -95 -3 -38 -8 -90 -10 -115 -3 -25 -8 -90 -12 -145 -12 -160
-6 -740 7 -740 1 0 3 -18 6 -40 8 -76 29 -194 53 -310 11 -49 17 -93 14 -97
-2 -5 0 -8 5 -8 5 0 12 -17 15 -37 7 -49 18 -92 30 -123 6 -16 18 -63 24 -93
1 -10 10 -31 18 -48 9 -16 13 -29 11 -29 -5 0 37 -125 59 -175 7 -16 23 -57
36 -90 12 -33 45 -107 72 -165 28 -58 51 -107 51 -110 3 -17 148 -269 201
-350 64 -96 136 -201 145 -210 3 -3 18 -23 35 -45 16 -22 34 -45 40 -51 5 -6
21 -25 35 -43 71 -92 352 -382 446 -461 167 -141 454 -350 503 -367 9 -4 26
-15 38 -26 13 -11 23 -17 23 -12 0 4 8 1 18 -8 42 -37 492 -250 577 -273 6 -1
48 -16 95 -33 82 -29 191 -62 207 -63 5 0 15 -4 24 -9 9 -4 27 -10 40 -13 13
-2 71 -16 129 -30 89 -22 232 -50 305 -61 11 -1 38 -5 60 -9 22 -3 63 -8 90
-11 28 -3 77 -8 110 -12 139 -16 648 -8 758 12 15 3 51 7 80 10 29 2 52 5 52
5 0 1 14 4 30 6 17 3 66 12 110 21 44 9 89 17 100 19 51 8 215 50 329 86 54
16 104 31 110 32 6 1 16 4 21 7 9 6 114 42 125 44 3 0 16 7 30 15 14 7 26 13
27 12 6 -3 70 22 125 49 10 5 25 9 33 9 8 0 15 5 15 10 0 6 5 10 11 10 17 0
329 157 339 171 3 3 21 14 40 24 33 17 163 99 185 117 6 5 46 34 90 65 234
167 542 453 699 647 17 22 42 52 56 68 35 40 41 46 85 108 22 30 43 60 47 65
56 74 77 105 70 105 -4 0 -2 4 4 8 16 10 135 202 126 202 -4 0 -2 4 4 8 11 6
144 262 171 328 7 16 28 66 47 112 19 45 33 82 29 82 -3 0 -1 6 4 13 9 10 35
78 38 97 0 3 9 30 20 60 10 30 20 60 21 65 1 6 10 37 20 70 21 71 22 74 28
100 2 11 5 20 6 20 1 0 4 14 6 30 3 17 7 37 11 45 3 8 8 24 10 35 2 11 12 63
23 115 21 105 27 141 35 215 4 28 8 64 11 80 13 88 17 172 18 385 1 263 -7
375 -40 585 -2 11 -5 34 -8 50 -2 17 -12 66 -21 110 -10 44 -19 91 -21 105 -3
14 -10 43 -16 65 -5 22 -12 48 -14 58 -1 10 -8 32 -13 50 -6 18 -29 93 -51
167 -23 74 -45 144 -49 155 -11 26 -50 126 -56 145 -26 76 -150 344 -176 380
-30 41 -40 45 -114 40 -72 -5 -338 -2 -455 4 -92 5 -835 9 -1030 6 -25 -1 -57
1 -72 3 -16 2 -28 1 -28 -2z"/>
</g>
</svg>
